<?xml version="1.0" encoding="utf-8"?>
<!-- Generator: Adobe Illustrator 24.1.0, SVG Export Plug-In . SVG Version: 6.00 Build 0)  -->
<svg version="1.1" id="Layer_1" xmlns="http://www.w3.org/2000/svg" xmlns:xlink="http://www.w3.org/1999/xlink" x="0px" y="0px"
	 viewBox="0 0 141.7 141.7" style="enable-background:new 0 0 141.7 141.7;" xml:space="preserve">
<style type="text/css">
	.st0{fill:#010202;}
</style>
<g>
	<path id="Path_7817" class="st0" d="M128.1,66.8c-0.7-1.2-2-2-3.4-2c-1.3,0-2.4,0.5-2.4,1.9c0,1.1,1.4,1.9,2.9,2.8
		c1.6,1,3.3,2.2,3.3,4.4c0,2.8-2.7,4.5-5.9,4.5c-1.4,0-2.8-0.3-4.2-0.8l0.2-3.7c0.7,1.6,2.3,2.7,4.1,2.7c1.6,0,2.7-0.8,2.7-2.1
		c0-1.1-0.9-1.8-2.1-2.5c-2.4-1.5-4-2.6-4-4.8c0-3.2,2.7-4.2,5.4-4.2c1.6,0,2.6,0.3,3.6,0.3L128.1,66.8 M114.6,70.1
		c-0.3,0.6-0.8,1.4-1.1,1.9c-0.3,1.4-0.4,2.8-0.3,4.2c0,0.7,0.1,1.6,0.4,1.9h-4c0.7-0.7,1-4.8,1-6.1c-0.6-2-1.4-4-2.4-5.8
		c-0.7-1.4-1.5-2.7-2.1-2.9c0.9-0.1,2.1-0.1,2.6-0.1c1,0,1.3,0.1,1.9,1.5c1,2.2,1.7,3.8,2.1,5c1-1.6,1.7-2.7,2.7-4.2
		c0.3-0.4,0.4-0.8,0.4-1.3c0-0.3,0-0.6-0.2-0.9h4C118.8,63.4,115.4,68.9,114.6,70.1 M100.6,66.8l-2.4,5.2h3.9L100.6,66.8
		 M105.3,78.3c-1.3,0-1.4,0-2.4-3.5l-0.4-1.3c-0.6,0.3-1.7,0.4-3.5,0.4h-1.8L97,74.5c-0.4,1-1,2.1-1,2.9c0,0.2,0,0.5,0.1,0.7H85.6
		c0.6-0.7,0.8-2.8,1.1-6.8l0.1-0.9c0.2-2.3,0.3-4,0.3-5.2c0-1-0.1-1.6-0.4-1.9h4.1c-0.6,0.4-0.8,2.8-1.1,6.8L89.5,71
		c-0.1,1.5-0.3,3-0.3,4.4c0,0.7,0.3,0.8,1,0.8c2.5,0,3.1-0.1,4.2-0.8c0.7-1.3,1.5-2.9,2.3-4.5l1-2.2c1-2.1,1.9-4.2,1.9-4.6
		c0-0.3-0.1-0.6-0.2-0.8h3.2c0,0,1.3,4.9,1.6,5.9l0.6,2.3c1.1,3.9,1.8,5.9,2.7,6.6C106.8,78.2,105.7,78.3,105.3,78.3 M79.1,78.4
		c-3.8,0-6-3.2-6-6.7c0-4.9,2.7-8.7,7.8-8.7c1.6,0,2.3,0.3,3.6,0.3l-0.4,3.8c-0.7-1.4-2-2.2-3.5-2.2c-3.2,0-4.5,3.4-4.5,6.4
		c0,3.2,1.8,4.9,4.2,4.9c1.3,0,2.4-0.3,4.3-1.7C83.9,76.9,82.1,78.4,79.1,78.4 M65.8,65.1c-0.4,0-0.8,0-1.2,0
		c-0.1,0.6-0.2,1.7-0.3,3.5l-0.1,1c0.2,0,0.4,0.1,0.7,0.1c1.8,0,3.1-1.1,3.1-2.8C68,65.7,67.2,65.1,65.8,65.1 M71.2,78.8
		c-1.1,0-1.4-0.2-1.7-0.7l-4.2-5.8c-0.3-0.4-0.6-0.8-1.1-0.8h-0.1L64,72.6c-0.1,1.5-0.2,2.7-0.2,3.6c0,1,0.1,1.6,0.4,1.9h-4
		c0.6-0.5,0.8-2.3,1.1-6.8l0.1-0.9c0.2-2.2,0.3-4,0.3-5.2c0-1.1-0.1-1.7-0.4-1.9h5.5c1.8,0,4.3,0.3,4.3,3.2c0,2.4-1.6,3.7-3.6,4.3
		c0.3,0.3,0.5,0.6,0.8,0.9l3,4c1.9,2.5,2,2.6,2.7,2.9C73.1,78.7,71.9,78.8,71.2,78.8 M52.5,66.7L50,71.9H54L52.5,66.7 M57.1,78.3
		c-1.3,0-1.4,0-2.4-3.5l-0.4-1.3c-0.6,0.3-1.7,0.4-3.5,0.4h-1.8l-0.3,0.7c-0.3,0.7-1.1,2.1-1,2.9c0,0.2,0,0.5,0.1,0.7h-3.6
		c1-1,2.3-3.4,4.1-7.2l1-2.2c0.9-2,1.9-4.3,1.9-4.6c0-0.3-0.1-0.6-0.2-0.8h3.2c0,0,0.8,3.2,1.6,5.9l0.6,2.3c1.1,3.9,1.8,5.9,2.7,6.6
		C58.6,78.2,57.5,78.3,57.1,78.3 M38.8,65.1c-0.3,0-0.7,0-1,0c-0.2,1-0.3,2-0.3,3.1c0,0-0.1,0.9-0.1,0.9h0.4c1.9,0,3.6-0.7,3.6-2.4
		C41.4,65.7,40.6,65.1,38.8,65.1 M38.3,70.9h-1.1l-0.2,2.2c-0.1,1-0.1,1.8-0.1,2.7c0,0.1,0.4,0.4,1.4,0.4c2.1,0,3.4-1,3.4-2.8
		C41.9,71.6,40.3,70.9,38.3,70.9 M38.6,78.1h-5.2c0.7-0.6,0.8-2.8,1.1-6.8l0.1-0.9c0.2-2.3,0.3-4,0.3-5.2c0-1-0.1-1.7-0.4-1.9h5.8
		c1.4,0,4.2,0.1,4.2,3c0,1.9-1.8,3.1-3.4,3.5c2.3,0.2,4,1.3,4,3.7C44.9,76.1,42.5,78.1,38.6,78.1"/>
	<path id="Path_7818" class="st0" d="M21.7,61.2c-0.5,0-0.6,0.1-0.8,0.3c-0.1,0-0.1,0-0.2,0c-0.5,0-0.9,0.1-1.3,0.4
		c-0.4,0.2-0.6,0.7-0.4,1.1c0,0,0.1-0.2,0.6-0.2c0.1,0,0.1,0,0.2,0c0.6,0,1.1,0.5,1.1,1.2c0,0.1,0,0.2,0,0.2c-0.1,0.9-0.4,2-1.9,2
		c0,0-0.2,0-0.4,0c-0.4,0-0.7-0.2-0.9-0.5c0.4-0.1,0.6-0.5,0.6-0.9c-0.1-0.6-0.5-1-1.1-1.2c-0.2-0.1-0.4-0.1-0.7-0.1
		c-0.8,0-1.6,0.4-2.1,1.1c-1.3,1.7-1.4,4.2-1.1,6.4c0.3,1.6,0.9,3.1,1.8,4.5c0,0,0.1,0.1,0.1,0.1c0,0,0,0,0,0c0.6-0.6,1.1-1.3,1.5-2
		c0.3,0.2,0.1,0.7,0,1.2c-0.2,0.5-0.4,1-0.6,1.4c-0.1,0.2-0.3,0.5-0.1,0.6c0,0,0.1,0,0.1,0c0.3,0,0.9-0.5,1.7-1.5
		c0.5-0.7,0.9-1.4,1.3-2.1c0.1,0,0.2,0.1,0.1,0.4c-0.2,0.8-0.4,1.6-0.9,2.3c-0.4,0.6-0.8,1.2-1.2,1.7c-0.1,0.1,0,0.1,0,0.2
		c0.8,0.7,1.6,1.3,2.5,1.8c0.8,0.5,1.6,0.8,2.5,1.1c0.9-0.3,1.7-0.6,2.5-1.1c0.9-0.5,1.8-1.1,2.5-1.8c0.1,0,0.1-0.1,0.1-0.1
		c0,0,0,0,0,0c-0.4-0.5-0.9-1.1-1.2-1.7c-0.4-0.7-0.7-1.5-0.9-2.3c0-0.3,0.1-0.4,0.1-0.4c0.3,0.7,0.8,1.4,1.3,2.1
		c0.7,1,1.4,1.5,1.7,1.5c0,0,0.1,0,0.1,0c0.2-0.1,0.1-0.4-0.1-0.6c-0.2-0.4-0.5-0.9-0.6-1.4c-0.1-0.5-0.3-1,0-1.2
		c0.4,0.7,0.9,1.4,1.5,2c0,0,0,0,0.1,0c0,0,0.1,0,0.1-0.1c0.9-1.4,1.5-2.9,1.8-4.5c0.3-2.3,0.2-4.8-1.1-6.4
		c-0.5-0.7-1.3-1.1-2.2-1.1c-0.2,0-0.4,0-0.7,0.1c-0.6,0.1-1,0.6-1.1,1.2c0,0.4,0.2,0.8,0.6,0.9c-0.2,0.3-0.5,0.5-0.9,0.5
		c-0.1,0-0.3,0-0.4,0c-0.6,0-1.1-0.3-1.4-0.7c-0.4-0.6-0.4-1.7-0.4-2.1c0-0.4-0.1-1.3-0.5-1.6c-0.4-0.3-1-0.5-1.5-0.5
		C21.7,61.2,21.7,61.2,21.7,61.2"/>
</g>
</svg>
