<svg xmlns="http://www.w3.org/2000/svg" width="21.393" height="25.5" viewBox="0 0 21.393 25.5">
  <path id="Path_7582" data-name="Path 7582" d="M102.3,77.923H98.716v-1.3a5.761,5.761,0,0,0-11.522,0v1.3H83.607a1.1,1.1,0,0,0-1.1,1.1V92.46a3.41,3.41,0,0,0,3.406,3.406H99.995A3.41,3.41,0,0,0,103.4,92.46V79.022A1.1,1.1,0,0,0,102.3,77.923Zm-14.114-1.3a4.766,4.766,0,0,1,9.533,0v1.3H88.188ZM102.406,92.46a2.414,2.414,0,0,1-2.411,2.411H85.914A2.414,2.414,0,0,1,83.5,92.46V79.022a.1.1,0,0,1,.1-.1h3.586V81.04a1.244,1.244,0,1,0,1,0V78.918h9.533V81.04a1.244,1.244,0,1,0,.995,0V78.918H102.3a.1.1,0,0,1,.1.1Z" transform="translate(-82.258 -70.616)" fill="#fff" stroke="#fff" stroke-width="0.5"/>
</svg>
