<svg id="Layer_1" data-name="Layer 1" xmlns="http://www.w3.org/2000/svg" viewBox="0 0 126.73 17.08"><path d="M97.81,133.31h2.61v16.86H97.81Zm51.74,0-6.68,16.87h2.81l4.83-12.2,4.81,12.2h2.81l-6.68-16.87Zm-28.67,16.87h2.61V133.31h-2.61Zm-5.41-16.87h0l-4.79,12.09-4.76-12.09H103l6.67,16.87h1.9l6.67-16.87h-2.8ZM92.13,143.84a5.79,5.79,0,0,1-5.37,3.78,5.59,5.59,0,0,1-4.06-1.72,5.94,5.94,0,0,1,0-8.34,5.59,5.59,0,0,1,4.06-1.72,5.79,5.79,0,0,1,5.39,3.85H95a8.7,8.7,0,0,0-8.24-6.5,8.19,8.19,0,0,0-6,2.54,8.61,8.61,0,0,0,0,12,8.22,8.22,0,0,0,6,2.53A8.68,8.68,0,0,0,95,143.84Zm47.69,0a5.79,5.79,0,0,1-5.37,3.78,5.62,5.62,0,0,1-4.06-1.72,5.94,5.94,0,0,1,0-8.34,5.62,5.62,0,0,1,4.06-1.72,5.79,5.79,0,0,1,5.39,3.85h2.86a8.72,8.72,0,0,0-8.25-6.5,8.19,8.19,0,0,0-5.95,2.54,8.61,8.61,0,0,0,0,12,8.22,8.22,0,0,0,5.95,2.53,8.7,8.7,0,0,0,8.23-6.43Z" transform="translate(-78.37 -133.19)"/><path d="M169.48,141.73a8.54,8.54,0,1,1,8.54,8.54A8.55,8.55,0,0,1,169.48,141.73Zm2.49-.92a.92.92,0,1,0,.92.92A.92.92,0,0,0,172,140.81Zm3,0a.92.92,0,1,0,.92.92A.92.92,0,0,0,175,140.81Zm6.05,0a.92.92,0,1,0,.92.92A.92.92,0,0,0,181.05,140.81Zm3,0a.92.92,0,1,0,.93.92A.92.92,0,0,0,184.07,140.81Zm-5.39.27a.93.93,0,0,0-1.31,0,.92.92,0,0,0,0,1.3.92.92,0,1,0,1.31-1.3Z" transform="translate(-78.37 -133.19)"/><path d="M194.45,145.69a4.8,4.8,0,0,1-1.94.35,3.44,3.44,0,0,1-3.64-3.73,3.66,3.66,0,0,1,3.84-3.86,3.81,3.81,0,0,1,1.75.33l-.23.77a3.51,3.51,0,0,0-1.48-.31,2.75,2.75,0,0,0-2.88,3,2.68,2.68,0,0,0,2.83,3,3.71,3.71,0,0,0,1.55-.31Z" transform="translate(-78.37 -133.19)"/><path d="M199.45,142.48h-2.86v2.65h3.19v.8h-4.14v-7.36h4v.79h-3v2.33h2.86Z" transform="translate(-78.37 -133.19)"/><path d="M200.88,144.77a3.41,3.41,0,0,0,1.71.48c1,0,1.54-.51,1.54-1.25s-.4-1.09-1.39-1.47c-1.2-.42-1.94-1.05-1.94-2.08a2.12,2.12,0,0,1,2.38-2,3.25,3.25,0,0,1,1.62.36l-.26.77a2.94,2.94,0,0,0-1.4-.35c-1,0-1.38.6-1.38,1.11,0,.68.44,1,1.46,1.42,1.24.48,1.88,1.08,1.88,2.16s-.84,2.12-2.58,2.12a3.85,3.85,0,0,1-1.88-.47Z" transform="translate(-78.37 -133.19)"/></svg>