<svg id="Group_3035" data-name="Group 3035" xmlns="http://www.w3.org/2000/svg" width="37.313" height="25" viewBox="0 0 37.313 25">
  <g id="Group_2964" data-name="Group 2964" transform="translate(0.016 0.016)">
    <rect id="Rectangle_166" data-name="Rectangle 166" width="37.281" height="24.968" transform="translate(0 0)" fill="#102576"/>
  </g>
  <g id="Group_2965" data-name="Group 2965" transform="translate(0.016 0.016)">
    <path id="Path_7686" data-name="Path 7686" d="M3362.979,385.068h4.672l9.781,6.55v-6.55h8.381v6.549l9.776-6.549h4.671v3.127l-7.712,5.166h7.712v8.382h-7.712l7.712,5.166v3.127h-4.669l-9.778-6.549v6.549h-8.381v-6.552l-9.782,6.552h-4.67v-3.127l7.713-5.167h-7.713v-8.382h7.715l-7.715-5.167Z" transform="translate(-3362.979 -385.068)" fill="#fff"/>
  </g>
  <g id="Group_2966" data-name="Group 2966" transform="translate(0.016 16.916)">
    <path id="Path_7687" data-name="Path 7687" d="M3377.038,435.128v-.583h-2.013l-12.046,8.067h2.881Z" transform="translate(-3362.979 -434.545)" fill="#e50019"/>
  </g>
  <g id="Group_2967" data-name="Group 2967" transform="translate(23.243 0.016)">
    <path id="Path_7688" data-name="Path 7688" d="M3430.733,392.551v.584h2.008l12.046-8.067H3441.9Z" transform="translate(-3430.733 -385.068)" fill="#e50019"/>
  </g>
  <g id="Group_2968" data-name="Group 2968" transform="translate(0.016 0.016)">
    <path id="Path_7689" data-name="Path 7689" d="M3362.979,387l9.166,6.139h2.882l-12.047-8.067h0Z" transform="translate(-3362.979 -385.068)" fill="#e50019"/>
  </g>
  <g id="Group_2969" data-name="Group 2969" transform="translate(25.253 16.916)">
    <path id="Path_7690" data-name="Path 7690" d="M3436.863,434.545l12.044,8.067v-1.93l-9.164-6.138Z" transform="translate(-3436.863 -434.545)" fill="#e50019"/>
  </g>
  <g id="Group_2970" data-name="Group 2970" transform="translate(0.016 0.016)">
    <path id="Path_7691" data-name="Path 7691" d="M3384.136,395.038v-9.97h-5.03v9.97h-16.127v5.029h16.127v9.969h5.03v-9.969h16.124v-5.029Z" transform="translate(-3362.979 -385.068)" fill="#e50019"/>
  </g>
  <g id="Group_2971" data-name="Group 2971">
    <path id="Path_7692" data-name="Path 7692" d="M3400.243,410.019h-37.313v-25h37.313Zm-37.28-.033h37.247V385.052h-37.247Z" transform="translate(-3362.929 -385.019)" fill="#1a1818"/>
  </g>
</svg>
