
<svg xmlns="http://www.w3.org/2000/svg" width="913.509" height="223.48" viewBox="0 0 913.509 223.48">
  <g id="Group_4770" data-name="Group 4770" transform="translate(-56.415 -116.364)" opacity="0.1">
    <path id="Path_1" data-name="Path 1" d="M338.88,301.821v-4.678a72.49,72.49,0,0,0-4.861-22.12c-5.366-12.9-14.416-25.025-22.1-37.852-14.26-23.8-30.3-51.3-44.65-75.286-11.811-19.753-22.827-45.124-52.159-45.517-30.5-.4-40.648,25.516-51.718,44.24C128.243,220.049,56.415,339.678,56.415,339.678H89.571S158.1,222.984,192.121,164.01c4.351-7.54,12.977-17.437,22.988-17.437,15.189,0,22.79,17.4,29.616,29.345,18.283,32.017,35.9,62.655,53.045,93.581,5.393,9.721,16.339,22.523,8.841,35.728-4.888,8.616-14.744,8.083-28.73,8.083-.022.222-135.265,0-135.265,0v26.369H265.5s28.934.848,40.67-1.276C325.576,334.9,336.125,320.411,338.88,301.821Z" transform="translate(0 0)"/>
    <path id="Path_2" data-name="Path 2" d="M99.743,154.384v4.682a72.463,72.463,0,0,0,4.861,22.115c5.366,12.905,14.416,25.025,22.1,37.857,14.26,23.8,30.3,51.3,44.644,75.285,11.816,19.748,22.827,45.119,52.164,45.511,30.5.408,40.648-25.51,51.718-44.235,35.148-59.445,106.976-179.069,106.976-179.069H349.052S280.523,233.22,246.5,292.2c-4.345,7.54-12.971,17.438-22.983,17.438-15.195,0-22.795-17.4-29.616-29.35-18.283-32.012-35.9-62.649-53.045-93.576-5.393-9.727-16.339-22.523-8.841-35.728,4.888-8.615,14.738-8.088,28.73-8.088.016-.217,135.265,0,135.265,0V116.532H173.123s-28.934-.848-40.67,1.271C113.047,121.313,102.5,135.8,99.743,154.384Z" transform="translate(189.39 0.002)"/>
    <path id="Path_3" data-name="Path 3" d="M413.042,301.821v-4.678a72.484,72.484,0,0,0-4.861-22.12c-5.366-12.9-14.416-25.025-22.1-37.852-14.26-23.8-30.3-51.3-44.644-75.286-11.816-19.753-22.827-45.124-52.164-45.517-30.5-.4-40.648,25.516-51.718,44.24C202.4,220.049,130.576,339.678,130.576,339.678h33.156s68.53-116.694,102.556-175.668c4.351-7.54,12.971-17.437,22.983-17.437,15.195,0,22.795,17.4,29.616,29.345,18.283,32.017,35.9,62.655,53.045,93.581,5.4,9.721,16.338,22.523,8.841,35.728-4.888,8.616-14.738,8.083-28.73,8.083-.016.222-135.265,0-135.265,0v26.369h122.89s28.929.848,40.664-1.276C399.738,334.9,410.286,320.411,413.042,301.821Z" transform="translate(324.164 0)"/>
    <path id="Path_4" data-name="Path 4" d="M173.9,154.384v4.682a72.464,72.464,0,0,0,4.861,22.115c5.366,12.905,14.421,25.025,22.1,37.857,14.26,23.8,30.3,51.3,44.65,75.285,11.811,19.748,22.827,45.119,52.158,45.511,30.5.408,40.649-25.51,51.718-44.235C384.542,236.156,456.37,116.532,456.37,116.532H423.214S354.684,233.22,320.664,292.2c-4.351,7.54-12.976,17.438-22.988,17.438-15.189,0-22.79-17.4-29.616-29.35-18.283-32.012-35.895-62.649-53.045-93.576-5.393-9.727-16.339-22.523-8.841-35.728,4.888-8.615,14.744-8.088,28.735-8.088.016-.217,135.26,0,135.26,0V116.532H247.284s-28.934-.848-40.67,1.271C187.208,121.313,176.66,135.8,173.9,154.384Z" transform="translate(513.554 0.002)"/>
  </g>
</svg>
