<svg id="Layer_1" data-name="Layer 1" xmlns="http://www.w3.org/2000/svg" viewBox="0 0 170.08 43.24"><defs><style>.cls-1{fill:#fff;}</style></defs><path class="cls-1" d="M109,152.25v-.91a14.48,14.48,0,0,0-.91-4.28,60.61,60.61,0,0,0-4.12-7.32c-2.65-4.61-5.64-9.93-8.31-14.57-2.2-3.82-4.25-8.73-9.71-8.8-5.68-.08-7.57,4.93-9.63,8.55-6.54,11.51-19.91,34.65-19.91,34.65h6.17s12.76-22.58,19.09-34c.81-1.46,2.42-3.37,4.28-3.37,2.83,0,4.24,3.36,5.52,5.68,3.4,6.19,6.68,12.12,9.87,18.1,1,1.89,3,4.36,1.65,6.92-.91,1.66-2.75,1.56-5.35,1.56,0,0-25.19,0-25.19,0v5.1H95.34a53.55,53.55,0,0,0,7.57-.24C106.53,158.65,108.49,155.84,109,152.25Z" transform="translate(-56.42 -116.36)"/><path class="cls-1" d="M99.74,123.72v.91a14.48,14.48,0,0,0,.91,4.28,61.9,61.9,0,0,0,4.11,7.32c2.66,4.61,5.64,9.93,8.32,14.57,2.19,3.82,4.25,8.73,9.71,8.8,5.68.08,7.56-4.93,9.63-8.55,6.54-11.51,19.91-34.65,19.91-34.65h-6.17s-12.76,22.58-19.09,34c-.81,1.46-2.42,3.37-4.28,3.37-2.83,0-4.25-3.37-5.52-5.68-3.4-6.19-6.68-12.12-9.87-18.1-1-1.89-3-4.36-1.65-6.92.91-1.66,2.75-1.56,5.35-1.56,0,0,25.18,0,25.18,0v-5.1H113.4a53.57,53.57,0,0,0-7.57.24C102.22,117.32,100.26,120.12,99.74,123.72Z" transform="translate(-56.42 -116.36)"/><path class="cls-1" d="M183.17,152.25v-.91a14.48,14.48,0,0,0-.91-4.28,61.9,61.9,0,0,0-4.11-7.32c-2.66-4.61-5.65-9.93-8.32-14.57-2.2-3.82-4.25-8.73-9.71-8.8-5.68-.08-7.57,4.93-9.63,8.55-6.54,11.51-19.91,34.65-19.91,34.65h6.17s12.76-22.58,19.09-34c.81-1.46,2.42-3.37,4.28-3.37,2.83,0,4.25,3.36,5.52,5.68,3.4,6.19,6.68,12.12,9.87,18.1,1,1.89,3,4.36,1.65,6.92-.91,1.66-2.75,1.56-5.35,1.56,0,0-25.18,0-25.18,0v5.1H169.5a53.71,53.71,0,0,0,7.58-.24C180.69,158.65,182.65,155.84,183.17,152.25Z" transform="translate(-56.42 -116.36)"/><path class="cls-1" d="M173.9,123.72v.91a14.48,14.48,0,0,0,.91,4.28,61.9,61.9,0,0,0,4.11,7.32c2.66,4.61,5.65,9.93,8.32,14.57,2.2,3.82,4.25,8.73,9.71,8.8,5.68.08,7.57-4.93,9.63-8.55,6.54-11.51,19.91-34.65,19.91-34.65h-6.17s-12.76,22.58-19.09,34c-.81,1.46-2.42,3.37-4.28,3.37-2.83,0-4.25-3.37-5.52-5.68-3.4-6.19-6.68-12.12-9.87-18.1-1-1.89-3-4.36-1.65-6.92.91-1.66,2.75-1.56,5.35-1.56,0,0,25.19,0,25.19,0v-5.1H187.57a53.71,53.71,0,0,0-7.58.24C176.38,117.32,174.42,120.12,173.9,123.72Z" transform="translate(-56.42 -116.36)"/></svg>