<svg id="Layer_1" data-name="Layer 1" xmlns="http://www.w3.org/2000/svg" viewBox="0 0 169.81 45.92"><defs><style>.cls-1{fill:#fff;}</style></defs><path class="cls-1" d="M225.68,151.37c-1.06-2.65-2.85-5.14-4.37-7.78-2.82-4.89-6-10.54-8.83-15.47-2.34-4.05-4.51-9.27-10.31-9.35-6-.08-8,5.25-10.23,9.09-6.95,12.22-21.15,36.8-21.15,36.8h6.55s13.55-24,20.28-36.1c.86-1.55,2.57-3.58,4.55-3.58,3,0,4.5,3.57,5.85,6,3.62,6.58,7.1,12.87,10.49,19.23,1.07,2,3.23,4.63,1.75,7.34-1,1.77-2.92,1.66-5.68,1.66,0,0-26.75,0-26.75,0v5.42h24.3a58,58,0,0,0,8-.26c3.84-.72,5.92-3.7,6.47-7.52v-1A15.54,15.54,0,0,0,225.68,151.37Z" transform="translate(-56.83 -118.77)"/><path class="cls-1" d="M57.67,121.53H86.42l-29.2,40.79a2,2,0,0,0-.39,1.17v1.2H90.58v-2.76H61.24l29.14-40.69a2.26,2.26,0,0,0,.46-1.33v-1.14H57.67Z" transform="translate(-56.83 -118.77)"/><rect class="cls-1" x="45.24" width="3.34" height="45.92"/><path class="cls-1" d="M162.5,118.87a1.21,1.21,0,0,0-.52.52l-18,31.9a8.56,8.56,0,0,0-.47,1c-.14.33-.28.67-.41,1a12.19,12.19,0,0,0-.84-2l-18.53-31.93a1.1,1.1,0,0,0-.54-.52,2.07,2.07,0,0,0-.73-.1h-2.27v45.92H123V125.55a16.19,16.19,0,0,0-.1-1.81l18.57,32.13a1.45,1.45,0,0,0,1.29.84h.52a1.41,1.41,0,0,0,1.3-.84l18.08-32.1a16.06,16.06,0,0,0-.1,1.78v39.14h2.92V118.77h-2.3A2,2,0,0,0,162.5,118.87Z" transform="translate(-56.83 -118.77)"/></svg>