<svg id="Layer_1" data-name="Layer 1" xmlns="http://www.w3.org/2000/svg" viewBox="0 0 93.58 70.94"><defs><style>.cls-1{fill:#fff;}</style></defs><rect class="cls-1" width="93.58" height="10.13"/><rect class="cls-1" y="60.8" width="93.58" height="10.13"/><path class="cls-1" d="M123.88,158.11v-.5a8.28,8.28,0,0,0-.5-2.36,35.5,35.5,0,0,0-2.26-4c-1.47-2.53-3.11-5.46-4.58-8-1.21-2.1-2.34-4.8-5.34-4.85s-4.17,2.72-5.3,4.71c-3.6,6.33-11,19.07-11,19.07h3.4s7-12.43,10.5-18.7c.45-.81,1.33-1.86,2.36-1.86,1.55,0,2.33,1.85,3,3.12,1.87,3.41,3.68,6.67,5.44,10,.55,1,1.67,2.39.9,3.8-.5.92-1.51.86-2.94.86,0,0-13.86,0-13.86,0v2.81h12.59a29.23,29.23,0,0,0,4.17-.14A4.19,4.19,0,0,0,123.88,158.11Z" transform="translate(-94.94 -114.79)"/><path class="cls-1" d="M118.78,142.41v.5a7.89,7.89,0,0,0,.5,2.35,33.85,33.85,0,0,0,2.26,4c1.46,2.54,3.11,5.47,4.58,8,1.21,2.1,2.34,4.8,5.34,4.85s4.16-2.72,5.3-4.71c3.6-6.33,11-19.07,11-19.07h-3.4s-7,12.42-10.5,18.7c-.45.81-1.33,1.86-2.36,1.86-1.56,0-2.33-1.85-3-3.12-1.88-3.41-3.68-6.67-5.44-10-.55-1-1.67-2.4-.9-3.8.5-.92,1.51-.86,2.94-.86,0,0,13.86,0,13.86,0v-2.81H126.3a29.2,29.2,0,0,0-4.17.14A4.18,4.18,0,0,0,118.78,142.41Z" transform="translate(-94.94 -114.79)"/><path class="cls-1" d="M164.68,158.11v-.5a8,8,0,0,0-.49-2.36,34.13,34.13,0,0,0-2.27-4c-1.46-2.53-3.1-5.46-4.57-8-1.21-2.1-2.34-4.8-5.35-4.85s-4.16,2.72-5.29,4.71c-3.61,6.33-11,19.07-11,19.07h3.39s7-12.43,10.51-18.7c.44-.81,1.33-1.86,2.35-1.86,1.56,0,2.34,1.85,3,3.12,1.87,3.41,3.68,6.67,5.43,10,.55,1,1.68,2.39.91,3.8-.5.92-1.51.86-2.95.86,0,0-13.85,0-13.85,0v2.81h12.59a29.07,29.07,0,0,0,4.16-.14A4.18,4.18,0,0,0,164.68,158.11Z" transform="translate(-94.94 -114.79)"/><path class="cls-1" d="M159.59,142.41v.5a7.59,7.59,0,0,0,.5,2.35,31.27,31.27,0,0,0,2.26,4c1.46,2.54,3.1,5.47,4.57,8,1.21,2.1,2.34,4.8,5.35,4.85s4.16-2.72,5.29-4.71c3.61-6.33,11-19.07,11-19.07h-3.39s-7,12.42-10.51,18.7c-.44.81-1.33,1.86-2.35,1.86-1.56,0-2.34-1.85-3-3.12-1.87-3.41-3.67-6.67-5.43-10-.55-1-1.68-2.4-.91-3.8.5-.92,1.51-.86,3-.86,0,0,13.85,0,13.85,0v-2.81H167.1a29.07,29.07,0,0,0-4.16.14A4.18,4.18,0,0,0,159.59,142.41Z" transform="translate(-94.94 -114.79)"/></svg>