<svg id="Layer_1" data-name="Layer 1" xmlns="http://www.w3.org/2000/svg" viewBox="0 0 44.16 53.63"><defs><style>.cls-1{fill:#fff;}</style></defs><g id="Group_2867" data-name="Group 2867"><g id="Group_2661" data-name="Group 2661"><path id="Path_7580" data-name="Path 7580" class="cls-1" d="M141.73,143.31a14.2,14.2,0,1,1,14.2-14.2A14.19,14.19,0,0,1,141.73,143.31Zm0-25.24a11,11,0,1,0,11,11,11,11,0,0,0-11-11Z" transform="translate(-119.65 -114.92)"/></g><g id="Group_2662" data-name="Group 2662"><path id="Path_7581" data-name="Path 7581" class="cls-1" d="M162.24,168.54a1.57,1.57,0,0,1-1.58-1.57h0a18.93,18.93,0,0,0-37.79-1.58h31.48a1.58,1.58,0,0,1,0,3.16h-34.7V167a22.08,22.08,0,0,1,44.16,0A1.57,1.57,0,0,1,162.24,168.54Z" transform="translate(-119.65 -114.92)"/></g></g></svg>