<svg xmlns="http://www.w3.org/2000/svg" width="308.3" height="162.084" viewBox="0 0 308.3 162.084">
  <g id="Group_4766" data-name="Group 4766" transform="translate(-164 -6951)">
    <g id="Group_4758" data-name="Group 4758" transform="translate(164 6951)">
      <path id="Path_7808" data-name="Path 7808" d="M272.186,187.958v-1.745a27.908,27.908,0,0,0-1.745-8.252c-1.926-4.815-5.176-9.337-7.934-14.123-5.118-8.88-10.877-19.139-16.028-28.086-4.241-7.367-8.193-16.834-18.724-16.979-10.95-.153-14.592,9.517-18.566,16.5-12.618,22.177-38.4,66.806-38.4,66.806h11.9s24.6-43.533,36.815-65.535c1.561-2.814,4.657-6.507,8.252-6.507,5.452,0,8.181,6.491,10.632,10.95,6.561,11.944,12.885,23.373,19.041,34.909,1.935,3.629,5.864,8.4,3.174,13.33-1.756,3.214-5.292,3.017-10.314,3.017-.007.082-48.557,0-48.557,0v9.837h44.114s10.385.314,14.6-.476C267.411,200.3,271.2,194.894,272.186,187.958Z" transform="translate(36.114 -118.772)"/>
      <g id="Group_3285" data-name="Group 3285" transform="translate(0)">
        <g id="Group_3282" data-name="Group 3282">
          <path id="Path_7809" data-name="Path 7809" d="M118.574,118.772v2.062a4.161,4.161,0,0,1-.824,2.415L64.84,197.134H118.1v5.009H56.826v-2.18a3.625,3.625,0,0,1,.708-2.121l53.028-74.063h-52.2v-5.007Z" transform="translate(-56.826 -118.772)"/>
        </g>
        <g id="Group_3283" data-name="Group 3283" transform="translate(82.133)">
          <path id="Path_7810" data-name="Path 7810" d="M108.134,202.143h-6.069V118.772h6.069Z" transform="translate(-102.065 -118.772)"/>
        </g>
        <g id="Group_3284" data-name="Group 3284" transform="translate(114.971)">
          <path id="Path_7811" data-name="Path 7811" d="M161.75,181.4c.236-.626.481-1.247.737-1.856a15.455,15.455,0,0,1,.855-1.739L196.1,119.89a2.139,2.139,0,0,1,.944-.942,3.8,3.8,0,0,1,1.3-.176h4.183v83.371h-5.3V131.085a31.574,31.574,0,0,1,.178-3.241l-32.819,58.273a2.572,2.572,0,0,1-2.357,1.531h-.944a2.652,2.652,0,0,1-2.355-1.531l-33.7-58.331a32,32,0,0,1,.176,3.3v71.058h-5.243V118.772h4.125a4.073,4.073,0,0,1,1.325.176,2.092,2.092,0,0,1,.973.942l33.642,57.977A24.025,24.025,0,0,1,161.75,181.4Z" transform="translate(-120.152 -118.772)"/>
        </g>
      </g>
    </g>
    <path id="Path_27322" data-name="Path 27322" d="M-168.831-19.443V-5.337h-5.079V-43.049h11.132a20.889,20.889,0,0,1,6.224.829,11.955,11.955,0,0,1,4.382,2.355,9.492,9.492,0,0,1,2.592,3.684,12.97,12.97,0,0,1,.855,4.816,12.272,12.272,0,0,1-.921,4.816,10.361,10.361,0,0,1-2.7,3.763,12.531,12.531,0,0,1-4.408,2.461,18.946,18.946,0,0,1-6.027.882Zm0-4.053h6.053a11.761,11.761,0,0,0,3.855-.579,7.906,7.906,0,0,0,2.8-1.618,6.721,6.721,0,0,0,1.711-2.487,8.5,8.5,0,0,0,.579-3.184A7.235,7.235,0,0,0-156.054-37q-2.224-2.026-6.724-2.026h-6.053Zm61.844,18.159h-3.947a1.7,1.7,0,0,1-1.105-.342,2.1,2.1,0,0,1-.632-.868l-3.526-9.106h-16.922l-3.526,9.106a2.056,2.056,0,0,1-.632.842,1.681,1.681,0,0,1-1.105.368h-3.948l15.079-37.712h5.184Zm-24.711-14h14.079L-123.54-34.68a28.673,28.673,0,0,1-1.132-3.553q-.289,1.079-.566,1.987t-.539,1.592Zm42.975-1.737V-5.337H-93.8V-43.049h10.658a23.288,23.288,0,0,1,6.184.724,11.8,11.8,0,0,1,4.3,2.092,8.377,8.377,0,0,1,2.513,3.3,11.038,11.038,0,0,1,.816,4.329,10.853,10.853,0,0,1-.632,3.737,9.87,9.87,0,0,1-1.829,3.119,10.943,10.943,0,0,1-2.921,2.355,14.461,14.461,0,0,1-3.908,1.474,5.391,5.391,0,0,1,1.684,1.605l11,14.974h-4.526a2.232,2.232,0,0,1-2.053-1.079L-82.3-19.89a2.851,2.851,0,0,0-.974-.908,3.511,3.511,0,0,0-1.579-.276Zm0-3.711h5.342a13.006,13.006,0,0,0,3.934-.539A8.005,8.005,0,0,0-76.6-26.851a6.331,6.331,0,0,0,1.724-2.355,7.691,7.691,0,0,0,.579-3.026,6.01,6.01,0,0,0-2.224-5.079q-2.224-1.711-6.619-1.711h-5.579Zm60.5-18.264v4.29H-40.405V-5.337h-5.105V-38.759H-57.748v-4.29Zm15.9,0a2.29,2.29,0,0,1,1.013.171,2.621,2.621,0,0,1,.75.7L11.281-13.758q-.079-.684-.105-1.329t-.026-1.25V-43.049h4.474V-5.337H13.044a2.194,2.194,0,0,1-1.013-.211,2.558,2.558,0,0,1-.8-.711l-21.817-28.4q.053.658.079,1.29t.026,1.158V-5.337h-4.474V-43.049Zm68.292,0v4.158H37.86v12.527H52.519v4H37.86V-9.5H55.966v4.158H32.729V-43.049ZM76.809-21.074V-5.337H71.73V-43.049H82.388a23.288,23.288,0,0,1,6.184.724,11.8,11.8,0,0,1,4.3,2.092,8.378,8.378,0,0,1,2.513,3.3A11.038,11.038,0,0,1,96.2-32.6a10.853,10.853,0,0,1-.632,3.737,9.87,9.87,0,0,1-1.829,3.119,10.943,10.943,0,0,1-2.921,2.355,14.461,14.461,0,0,1-3.908,1.474A5.392,5.392,0,0,1,88.6-20.311l11,14.974H95.073A2.232,2.232,0,0,1,93.02-6.416L83.23-19.89a2.851,2.851,0,0,0-.974-.908,3.511,3.511,0,0,0-1.579-.276Zm0-3.711h5.342a13.006,13.006,0,0,0,3.934-.539,8.005,8.005,0,0,0,2.842-1.526,6.331,6.331,0,0,0,1.724-2.355,7.691,7.691,0,0,0,.579-3.026,6.01,6.01,0,0,0-2.224-5.079q-2.224-1.711-6.619-1.711H76.809Zm55.5-12.369a2.04,2.04,0,0,1-.5.592,1.111,1.111,0,0,1-.684.2,1.822,1.822,0,0,1-1.039-.447,16.571,16.571,0,0,0-1.5-.987,12.174,12.174,0,0,0-2.184-.987,9.4,9.4,0,0,0-3.092-.447,9.144,9.144,0,0,0-3.026.461,6.435,6.435,0,0,0-2.2,1.25,5.132,5.132,0,0,0-1.329,1.855,5.889,5.889,0,0,0-.447,2.3,4.255,4.255,0,0,0,.776,2.619,6.689,6.689,0,0,0,2.053,1.776,15.726,15.726,0,0,0,2.895,1.276q1.618.539,3.316,1.118t3.316,1.3a11.663,11.663,0,0,1,2.895,1.829,8.339,8.339,0,0,1,2.053,2.711,9.022,9.022,0,0,1,.776,3.948,12.732,12.732,0,0,1-.842,4.645,10.708,10.708,0,0,1-2.461,3.776,11.511,11.511,0,0,1-3.974,2.526,14.617,14.617,0,0,1-5.355.921,16.353,16.353,0,0,1-6.671-1.329,15.648,15.648,0,0,1-5.145-3.592l1.474-2.421a1.938,1.938,0,0,1,.513-.487,1.2,1.2,0,0,1,.671-.2,2.094,2.094,0,0,1,1.263.592,21.048,21.048,0,0,0,1.776,1.3,13.568,13.568,0,0,0,2.579,1.3,10.178,10.178,0,0,0,3.7.592,9.722,9.722,0,0,0,3.237-.5,6.875,6.875,0,0,0,2.408-1.408,6.1,6.1,0,0,0,1.513-2.171,7.255,7.255,0,0,0,.526-2.816,4.725,4.725,0,0,0-.776-2.8,6.435,6.435,0,0,0-2.04-1.829,14.257,14.257,0,0,0-2.882-1.25l-3.316-1.053a33.437,33.437,0,0,1-3.316-1.25,10.777,10.777,0,0,1-2.882-1.842,8.465,8.465,0,0,1-2.04-2.829,10.076,10.076,0,0,1-.776-4.2,9.989,9.989,0,0,1,.776-3.869,9.971,9.971,0,0,1,2.25-3.316,10.905,10.905,0,0,1,3.645-2.316,13.351,13.351,0,0,1,4.987-.868,15.963,15.963,0,0,1,5.763,1,13.273,13.273,0,0,1,4.553,2.895Z" transform="translate(337.91 7118)" fill="#737373"/>
  </g>
</svg>
