<svg xmlns="http://www.w3.org/2000/svg" width="547.745" height="134" viewBox="0 0 547.745 134">
  <g id="Group_4764" data-name="Group 4764" transform="translate(-56.415 -116.364)" opacity="0.1">
    <path id="Path_1" data-name="Path 1" d="M225.783,227.565v-2.8a43.466,43.466,0,0,0-2.915-13.263c-3.217-7.735-8.644-15.005-13.253-22.7-8.55-14.273-18.17-30.763-26.772-45.142-7.082-11.844-13.687-27.056-31.275-27.292-18.289-.242-24.373,15.3-31.01,26.527-21.075,35.64-64.143,107.371-64.143,107.371H76.3s41.091-69.97,61.49-105.332c2.609-4.521,7.781-10.456,13.784-10.456,9.108,0,13.665,10.431,17.758,17.6,10.963,19.2,21.526,37.568,31.806,56.112,3.233,5.829,9.8,13.505,5.3,21.423-2.931,5.166-8.84,4.847-17.227,4.847-.013.133-81.106,0-81.106,0v15.811h73.683s17.349.508,24.386-.765C217.805,247.4,224.131,238.711,225.783,227.565Z" transform="translate(0 0)" fill="#fff"/>
    <path id="Path_2" data-name="Path 2" d="M99.743,139.161v2.807a43.449,43.449,0,0,0,2.915,13.26c3.217,7.738,8.644,15,13.252,22.7,8.551,14.27,18.167,30.763,26.769,45.142,7.085,11.841,13.687,27.053,31.278,27.289,18.289.245,24.373-15.3,31.01-26.523,21.075-35.644,64.143-107.371,64.143-107.371H249.23S208.14,186.432,187.737,221.8c-2.605,4.521-7.777,10.456-13.781,10.456-9.111,0-13.668-10.431-17.758-17.6-10.963-19.195-21.526-37.565-31.806-56.109-3.233-5.832-9.8-13.5-5.3-21.423,2.931-5.166,8.837-4.85,17.227-4.85.01-.13,81.106,0,81.106,0V116.465H143.742s-17.349-.508-24.386.762C107.72,119.332,101.4,128.018,99.743,139.161Z" transform="translate(96.211 0.001)" fill="#fff"/>
    <path id="Path_3" data-name="Path 3" d="M299.944,227.565v-2.8a43.462,43.462,0,0,0-2.915-13.263c-3.217-7.735-8.644-15.005-13.253-22.7-8.55-14.273-18.167-30.763-26.769-45.142-7.085-11.844-13.687-27.056-31.278-27.292-18.289-.242-24.373,15.3-31.01,26.527-21.075,35.64-64.143,107.371-64.143,107.371h19.88s41.091-69.97,61.493-105.332c2.609-4.521,7.778-10.456,13.781-10.456,9.111,0,13.668,10.431,17.758,17.6,10.963,19.2,21.526,37.568,31.806,56.112,3.237,5.829,9.8,13.505,5.3,21.423-2.931,5.166-8.837,4.847-17.227,4.847-.01.133-81.106,0-81.106,0v15.811h73.686s17.346.508,24.383-.765C291.967,247.4,298.292,238.711,299.944,227.565Z" transform="translate(164.677 0)" fill="#fff"/>
    <path id="Path_4" data-name="Path 4" d="M173.9,139.161v2.807a43.45,43.45,0,0,0,2.915,13.26c3.217,7.738,8.647,15,13.252,22.7,8.551,14.27,18.17,30.763,26.772,45.142,7.082,11.841,13.687,27.053,31.274,27.289,18.289.245,24.373-15.3,31.011-26.523,21.075-35.644,64.143-107.371,64.143-107.371h-19.88S282.3,186.432,261.9,221.8c-2.609,4.521-7.781,10.456-13.784,10.456-9.108,0-13.665-10.431-17.758-17.6-10.963-19.195-21.523-37.565-31.806-56.109-3.233-5.832-9.8-13.5-5.3-21.423,2.931-5.166,8.841-4.85,17.23-4.85.01-.13,81.1,0,81.1,0V116.465H217.9s-17.349-.508-24.386.762C181.881,119.332,175.556,128.018,173.9,139.161Z" transform="translate(260.888 0.001)" fill="#fff"/>
  </g>
</svg>
