<svg id="Layer_1" data-name="Layer 1" xmlns="http://www.w3.org/2000/svg" viewBox="0 0 247.78 19.58"><defs><style>.cls-1{fill:#fff;}</style></defs><g id="Group_2666" data-name="Group 2666"><g id="Group_37" data-name="Group 37"><path id="Path_1" data-name="Path 1" class="cls-1" d="M45.23,135a3.5,3.5,0,0,0-2.48-2.47c-2.18-.59-10.92-.59-10.92-.59s-8.75,0-10.93.59A3.47,3.47,0,0,0,18.43,135a38.68,38.68,0,0,0,0,13.46,3.47,3.47,0,0,0,2.47,2.47c2.18.59,10.93.59,10.93.59s8.74,0,10.92-.59a3.5,3.5,0,0,0,2.48-2.47,39.34,39.34,0,0,0,0-13.46ZM29,145.93v-8.4l7.27,4.2Z" transform="translate(-17.84 -131.94)"/></g><g id="Group_38" data-name="Group 38"><path id="Path_2" data-name="Path 2" class="cls-1" d="M159.23,142.87l.54-3.52H156.4v-2.28a1.76,1.76,0,0,1,2-1.9h1.53v-3a17.74,17.74,0,0,0-2.72-.24c-2.78,0-4.59,1.69-4.59,4.73v2.68h-3.09v3.52h3.09v8.5a12.11,12.11,0,0,0,3.8,0v-8.5Z" transform="translate(-17.84 -131.94)"/></g><g id="Group_39" data-name="Group 39"><g id="Group_3" data-name="Group 3"><path id="Path_3" data-name="Path 3" class="cls-1" d="M114.22,151.52a14,14,0,0,0,14.07-14.06c0-.22,0-.43,0-.64a10.19,10.19,0,0,0,2.47-2.56,10,10,0,0,1-2.84.78,5,5,0,0,0,2.17-2.74,9.82,9.82,0,0,1-3.14,1.2,4.95,4.95,0,0,0-8.42,4.51,14,14,0,0,1-10.19-5.17,5,5,0,0,0,1.53,6.6,4.84,4.84,0,0,1-2.23-.61v.06a5,5,0,0,0,4,4.85,5.09,5.09,0,0,1-2.23.08,5,5,0,0,0,4.62,3.43,9.92,9.92,0,0,1-6.14,2.12,9.23,9.23,0,0,1-1.18-.07,14,14,0,0,0,7.57,2.22" transform="translate(-17.84 -131.94)"/></g></g><g id="Group_40" data-name="Group 40"><g id="Group_6" data-name="Group 6"><g id="Group_5" data-name="Group 5"><path id="Path_4" data-name="Path 4" class="cls-1" d="M184.76,133.7c2.61,0,2.92,0,4,.06a5.39,5.39,0,0,1,1.82.34,3.22,3.22,0,0,1,1.86,1.86,5.33,5.33,0,0,1,.34,1.81c0,1,.05,1.35.05,4s0,2.92-.05,4a5.33,5.33,0,0,1-.34,1.81,3.22,3.22,0,0,1-1.86,1.86,5.39,5.39,0,0,1-1.82.34c-1,.05-1.34.06-4,.06s-2.93,0-4-.06a5.43,5.43,0,0,1-1.82-.34,3.23,3.23,0,0,1-1.85-1.86,5.33,5.33,0,0,1-.34-1.81c0-1-.06-1.35-.06-4s0-2.92.06-4a5.33,5.33,0,0,1,.34-1.81A3.23,3.23,0,0,1,179,134.1a5.43,5.43,0,0,1,1.82-.34c1,0,1.34-.06,4-.06m0-1.76c-2.66,0-3,0-4,.06a7.38,7.38,0,0,0-2.37.45,5,5,0,0,0-2.87,2.87,7.12,7.12,0,0,0-.45,2.37c-.05,1.05-.06,1.38-.06,4s0,3,.06,4a7.12,7.12,0,0,0,.45,2.37,5,5,0,0,0,2.87,2.86,7.13,7.13,0,0,0,2.37.46c1.05,0,1.38.06,4,.06s3,0,4-.06a7.14,7.14,0,0,0,2.38-.46,5,5,0,0,0,2.86-2.86,7.13,7.13,0,0,0,.46-2.37c0-1.05.06-1.38.06-4s0-3-.06-4a7.13,7.13,0,0,0-.46-2.37,5,5,0,0,0-2.86-2.87,7.38,7.38,0,0,0-2.38-.45c-1-.05-1.37-.06-4-.06Z" transform="translate(-17.84 -131.94)"/><path id="Path_5" data-name="Path 5" class="cls-1" d="M184.76,136.7a5,5,0,1,0,5,5h0a5,5,0,0,0-5-5Zm0,8.29a3.26,3.26,0,1,1,3.26-3.26,3.27,3.27,0,0,1-3.26,3.26Z" transform="translate(-17.84 -131.94)"/><circle id="Ellipse_1" data-name="Ellipse 1" class="cls-1" cx="172.14" cy="4.56" r="1.17"/></g></g></g><g id="Group_41" data-name="Group 41"><g id="Group_9" data-name="Group 9"><g id="Group_8" data-name="Group 8"><path id="Path_6" data-name="Path 6" class="cls-1" d="M88.26,136.47q-.15,3.3-4.62,9.05-4.61,6-7.81,6c-1.32,0-2.43-1.22-3.35-3.65-.61-2.24-1.21-4.47-1.82-6.7-.68-2.44-1.41-3.65-2.18-3.66a7,7,0,0,0-1.78,1.07l-1.07-1.37c1.12-1,2.22-2,3.31-3,1.49-1.28,2.61-2,3.35-2,1.76-.17,2.85,1,3.25,3.61q.66,4.17.92,5.19c.51,2.31,1.07,3.46,1.68,3.46s1.18-.75,2.13-2.25a8.61,8.61,0,0,0,1.52-3.41c.14-1.3-.37-1.94-1.52-1.94a4.24,4.24,0,0,0-1.68.37Q80.27,131.79,85,132C87.3,132,88.39,133.52,88.26,136.47Z" transform="translate(-17.84 -131.94)"/></g></g></g><path id="Path_23" data-name="Path 23" class="cls-1" d="M255.86,131.94a9.78,9.78,0,0,0-3.57,18.89,9.38,9.38,0,0,1,0-2.8l1.15-4.87a3.42,3.42,0,0,1-.29-1.45c0-1.36.78-2.37,1.77-2.37a1.22,1.22,0,0,1,1.24,1.21,1,1,0,0,1,0,.17,19.85,19.85,0,0,1-.82,3.26,1.43,1.43,0,0,0,1,1.73,1.5,1.5,0,0,0,.42,0c1.74,0,3.08-1.84,3.08-4.48a3.86,3.86,0,0,0-4.09-4,4.23,4.23,0,0,0-4.42,4v.2a3.8,3.8,0,0,0,.72,2.23.29.29,0,0,1,.07.28c-.08.31-.24,1-.28,1.11s-.14.22-.33.13a4.39,4.39,0,0,1-2-3.79c0-3.08,2.24-5.92,6.47-5.92a5.74,5.74,0,0,1,6,5.65c0,3.38-2.13,6.09-5.07,6.09a2.62,2.62,0,0,1-2.24-1.13l-.61,2.33a10.81,10.81,0,0,1-1.22,2.57,9.79,9.79,0,0,0,5.78-18.71,9.59,9.59,0,0,0-2.86-.44Z" transform="translate(-17.84 -131.94)"/><path id="Path_24" data-name="Path 24" class="cls-1" d="M229.16,136.71c0-.09,0-.09-.09-.09a3.6,3.6,0,0,1-.66-.06c-.8-.12-3.38-1.47-3.81-3.69a5.58,5.58,0,0,1-.11-.82c0-.11,0-.11-.1-.11h-3.1c-.21,0-.18,0-.18.18v13.13a2.69,2.69,0,0,1,0,.49,2.86,2.86,0,0,1-3.27,2.34l-.11,0a5.25,5.25,0,0,1-.67-.22l-.05-.05-.23-.17a2.79,2.79,0,0,1-.81-3.86,2.85,2.85,0,0,1,1.44-1.12,2.64,2.64,0,0,1,1-.15,3.52,3.52,0,0,1,.65.1c.08,0,.12,0,.12-.08v-.08c0-.79,0-2.5,0-2.51v-.68c0-.06,0-.07-.08-.08a6.32,6.32,0,0,0-1.23,0,6.19,6.19,0,0,0-3.35,11,1.46,1.46,0,0,0,.33.22h0l.15.14a2.47,2.47,0,0,0,.52.31,6.25,6.25,0,0,0,7.57-1.52,6.12,6.12,0,0,0,1.49-4c0-2.17,0-4.35,0-6.53,0-.05,0-.13,0-.15s.09,0,.13.06A7.88,7.88,0,0,0,229,140c.18,0,.2,0,.2-.19C229.2,139,229.16,136.91,229.16,136.71Z" transform="translate(-17.84 -131.94)"/></g></svg>